<svg width="24" height="12" viewBox="0 0 24 12" fill="none" xmlns="http://www.w3.org/2000/svg">
<path d="M10.2981 11.5771C9.76527 11.5771 9.33333 11.1452 9.33333 10.6124V10.6124C9.33333 10.0796 9.76527 9.64762 10.2981 9.64762H13.7019C14.2347 9.64762 14.6667 10.0796 14.6667 10.6124V10.6124C14.6667 11.1452 14.2347 11.5771 13.7019 11.5771H10.2981ZM4.96476 6.75333C4.43194 6.75333 4 6.32139 4 5.78857V5.78857C4 5.25575 4.43194 4.82381 4.96476 4.82381H19.0352C19.5681 4.82381 20 5.25575 20 5.78857V5.78857C20 6.32139 19.5681 6.75333 19.0352 6.75333H4.96476ZM0.964761 1.92952C0.431938 1.92952 0 1.49758 0 0.964762V0.964762C0 0.431938 0.431939 0 0.964762 0H23.0352C23.5681 0 24 0.431938 24 0.964762V0.964762C24 1.49758 23.5681 1.92952 23.0352 1.92952H0.964761Z" fill="teal"/>
</svg>
